<?xml version="1.0" encoding="utf-8"?>
<!-- Generator: Adobe Illustrator 24.1.3, SVG Export Plug-In . SVG Version: 6.00 Build 0)  -->
<svg version="1.1" id="Laag_1" xmlns="http://www.w3.org/2000/svg" xmlns:xlink="http://www.w3.org/1999/xlink" x="0px" y="0px" xml:space="preserve">
<g>
	<path d="M57.84,277.16c7.09,0,11.67,5.34,11.67,11.96c0,5.94-3.59,9.2-7.64,10.45h16.12v5.85H46.63v-5.56l5.91-0.29h0.68
		c-4.21-1.24-7.09-4.45-7.09-10.45C46.12,282.4,50.89,277.16,57.84,277.16z M57.84,283.14c-4.31,0-7.2,2.86-7.2,7.87
		c0,4.66,2.42,8.3,6.69,8.56h1.01c4.01-0.25,6.63-3.48,6.63-8.56C64.97,286.25,62.16,283.14,57.84,283.14z"/>
	<path d="M37.63,266.5h31.36v5.85H37.63V266.5z"/>
	<path d="M46.63,233.41h22.36v5.44c0,0-3.1,0.41-5.77,0.41h-1.41c4.06,1.24,7.68,4.5,7.68,10.46c0,6.69-4.68,11.96-11.65,11.96
		c-7.06,0-11.73-5.28-11.73-12.27c0-5.78,2.9-8.94,7.14-10.15h-6.62V233.41z M57.84,239.26c-4.6,0-7.17,3.33-7.17,8.58
		c0,5.01,2.84,7.87,7.17,7.87c4.31,0,7.13-3.14,7.13-7.87C64.97,242.54,62.11,239.26,57.84,239.26z"/>
	<path d="M61.54,223.62c2.04-0.63,3.45-2.59,3.48-6.11c0.02-3.23-1.03-4.32-2.49-4.32c-2.03,0-2.46,2.09-3.09,5.95
		c-0.89,5.12-2.08,9.68-6.53,9.68c-4.35,0-6.81-4.52-6.81-10.6c0-6.63,3.18-10.2,7.66-10.25v5.18c-2.25,0.51-3.1,2.12-3.1,5.17
		c0,2.93,0.93,4.52,2.5,4.52c1.87,0,2.37-2.1,3.06-6.35c0.95-4.59,1.77-9.29,6.71-9.29c4.21,0,6.59,4.07,6.59,10.12
		c0,9.76-5.81,11.94-7.98,11.7V223.62z"/>
	<path d="M51.06,187.03v5.76h17.93v5.85H51.06v5.76h-4.43v-5.76H40.5v-5.85h6.13v-5.76H51.06z"/>
	<path d="M41.95,176.55v6.79h-5.14v-6.79H41.95z M46.63,177.02h22.36v5.85H46.63V177.02z"/>
	<path d="M69.51,157.87c0,8.35-4,14.4-11.66,14.4c-7.62,0-11.74-6.05-11.74-14.4c0-7.86,3.5-12.65,9.3-13.17v5.34
		c-2.94,1.02-4.71,4.11-4.71,7.82c0,4.56,2.45,8.48,7.15,8.48c4.7,0,7.07-3.86,7.07-8.48c0-4.03-1.76-6.85-4.75-7.87v-5.33
		C66.05,145.12,69.51,149.98,69.51,157.87z"/>
	<path d="M75.53,133.4c0,0-7.02,7.24-19.42,7.24s-19.28-7.24-19.28-7.24l2.49-3.11c0,0,5.84,5.77,16.78,5.77
		c11.22,0,16.92-5.77,16.92-5.77L75.53,133.4z"/>
	<path d="M51.06,109.5v5.76h17.93v5.85H51.06v5.76h-4.43v-5.76H40.5v-5.85h6.13v-5.76H51.06z"/>
	<path d="M61.55,80c4.62,0.77,7.96,5.01,7.96,12.61c0,8.58-4.24,14.5-11.66,14.5c-7.34,0-11.74-5.69-11.74-14.35
		c0-8.75,4.1-13.25,12.6-12.88v21.33c3.7-0.43,6.36-3.41,6.36-8.46c0-3.71-1.44-6.37-3.53-7.1V80z M55.5,100.94V85.68
		c-3.04,0.35-4.94,2.98-4.94,7.37C50.56,97.36,52.68,100.16,55.5,100.94z"/>
	<path d="M46.11,61.22h5.35c0,5.41,3.74,7.81,5.32,8.58h12.21v5.85H46.63V69.8h6.71C50.58,68.95,46.11,66.49,46.11,61.22z"/>
	<path d="M41.95,51.04v6.79h-5.14v-6.79H41.95z M46.63,51.51h22.36v5.85H46.63V51.51z"/>
	<path d="M55.32,19.93h13.67v5.85H56.36c-3.79,0-5.53,1.74-5.53,5.87c0,4.05,2.35,7.32,4.87,8.31h13.28v5.85H46.63v-5.85h6.44
		c-3.61-1.19-6.96-4.81-6.96-10.38C46.11,24.08,48.98,19.93,55.32,19.93z"/>
	<path d="M56.12,9.19c-10.94,0-16.78,5.77-16.78,5.77l-2.49-3.11c0,0,6.88-7.24,19.28-7.24s19.42,7.24,19.42,7.24l-2.49,3.11
		C73.04,14.96,67.34,9.19,56.12,9.19z"/>
</g>
</svg>
