<?xml version="1.0" encoding="utf-8"?>
<!-- Generator: Adobe Illustrator 24.1.3, SVG Export Plug-In . SVG Version: 6.00 Build 0)  -->
<svg version="1.1" id="Laag_1" xmlns="http://www.w3.org/2000/svg" xmlns:xlink="http://www.w3.org/1999/xlink" x="0px" y="0px" xml:space="preserve">
<g>
	<path d="M56.48,369.24c4.62,0.77,7.96,5.01,7.96,12.61c0,8.58-4.24,14.5-11.66,14.5c-7.34,0-11.74-5.69-11.74-14.35
		c0-8.75,4.1-13.25,12.6-12.88v21.33c3.7-0.43,6.36-3.41,6.36-8.46c0-3.71-1.44-6.37-3.53-7.1V369.24z M50.43,390.18v-15.25
		c-3.04,0.35-4.94,2.98-4.94,7.37C45.49,386.61,47.62,389.4,50.43,390.18z"/>
	<path d="M36.89,358.07v6.79h-5.14v-6.79H36.89z M41.57,358.53h22.36v5.85H41.57V358.53z"/>
	<path d="M41.31,326.33h4.48c0.08,3.25-1.05,6.68-2.08,9.09c1.52-3.09,3.89-6,7.47-6c5.9,0,9.31,4.67,9.31,12.14
		c0.13,3.8,0.49,5.6,1.98,5.6c0.92,0,1.45-0.71,1.45-2.09l0-7.35c0-6,1.71-9.53,7.11-9.53h2.1v5.85h-1.06c-2.76,0-3.7,1.9-3.7,4.95
		v7c0,5.43-1.83,7.08-4.26,7.08c-3.09,0-4.13-2.91-4.16-6.82c-1.19,4.65-4.31,7.53-9.05,7.53c-6,0-9.86-4.72-9.86-12.23
		c0-1.04,0.1-2.07,0.3-3.06L41.31,326.33z M50.95,335.1c-3.35,0-5.38,2.55-5.38,6.45c0,3.91,1.99,6.55,5.38,6.55
		c3.39,0,5.34-2.6,5.34-6.55C56.29,337.7,54.34,335.1,50.95,335.1z M43.1,336.78c-0.12,0.25-0.24,0.49-0.34,0.69l0.07,0
		C42.91,337.24,43,337.01,43.1,336.78z"/>
	<path d="M56.48,296.88c4.62,0.77,7.96,5.01,7.96,12.61c0,8.58-4.24,14.5-11.66,14.5c-7.34,0-11.74-5.69-11.74-14.35
		c0-8.75,4.1-13.25,12.6-12.88v21.33c3.7-0.43,6.36-3.41,6.36-8.46c0-3.71-1.44-6.37-3.53-7.1V296.88z M50.43,317.82v-15.25
		c-3.04,0.35-4.94,2.98-4.94,7.37C45.49,314.25,47.62,317.04,50.43,317.82z"/>
	<path d="M50.26,266.65h13.67v5.85H51.3c-3.79,0-5.53,1.74-5.53,5.87c0,4.05,2.35,7.32,4.87,8.31h13.28v5.85H41.57v-5.85H48
		c-3.61-1.19-6.96-4.81-6.96-10.38C41.05,270.81,43.92,266.65,50.26,266.65z"/>
	<path d="M52.78,222.39c7.09,0,11.67,5.34,11.67,11.96c0,5.94-3.59,9.2-7.64,10.45h16.12v5.85H41.57v-5.56l5.91-0.29h0.68
		c-4.21-1.24-7.09-4.45-7.09-10.45C41.06,227.63,45.83,222.39,52.78,222.39z M52.78,228.37c-4.31,0-7.2,2.86-7.2,7.87
		c0,4.66,2.42,8.3,6.69,8.56h1.01c4.01-0.25,6.63-3.48,6.63-8.56C59.91,231.48,57.1,228.37,52.78,228.37z"/>
	<path d="M41.05,203.73h5.35c0,5.41,3.74,7.81,5.32,8.58h12.21v5.85H41.57v-5.85h6.71C45.52,211.46,41.05,209,41.05,203.73z"/>
	<path d="M52.79,201.33c-7.55,0-11.74-5.8-11.74-14.26c0-8.4,4.19-14.14,11.74-14.14c7.6,0,11.66,5.74,11.66,14.14
		C64.44,195.53,60.39,201.33,52.79,201.33z M52.79,178.85c-4.59,0-7.25,3.59-7.25,8.22c0,4.63,2.62,8.34,7.25,8.34
		c4.63,0,7.16-3.65,7.16-8.34C59.95,182.5,57.42,178.85,52.79,178.85z"/>
	<path d="M36.89,161.87v6.79h-5.14v-6.79H36.89z M41.57,162.31h31.36v5.85H41.57V162.31z"/>
	<path d="M56.48,130.48c4.62,0.77,7.96,5.01,7.96,12.61c0,8.58-4.24,14.5-11.66,14.5c-7.34,0-11.74-5.69-11.74-14.35
		c0-8.75,4.1-13.25,12.6-12.87v21.33c3.7-0.43,6.36-3.41,6.36-8.46c0-3.71-1.44-6.37-3.53-7.1V130.48z M50.43,151.42v-15.25
		c-3.04,0.35-4.94,2.98-4.94,7.37C45.49,147.84,47.62,150.64,50.43,151.42z"/>
	<path d="M64.44,112.68c0,8.35-4,14.4-11.66,14.4c-7.62,0-11.74-6.05-11.74-14.4c0-7.86,3.5-12.65,9.3-13.17v5.34
		c-2.94,1.02-4.71,4.11-4.71,7.82c0,4.56,2.45,8.48,7.15,8.48c4.7,0,7.07-3.86,7.07-8.48c0-4.03-1.76-6.85-4.75-7.87v-5.33
		C60.99,99.94,64.44,104.79,64.44,112.68z"/>
	<path d="M46,79.43v5.76h17.93v5.85H46v5.76h-4.43v-5.76h-6.13v-5.85h6.13v-5.76H46z"/>
	<path d="M56.48,49.93c4.62,0.77,7.96,5.01,7.96,12.61c0,8.58-4.24,14.5-11.66,14.5c-7.34,0-11.74-5.69-11.74-14.35
		c0-8.75,4.1-13.25,12.6-12.87v21.33c3.7-0.43,6.36-3.41,6.36-8.46c0-3.71-1.44-6.37-3.53-7.1V49.93z M50.43,70.87V55.62
		c-3.04,0.35-4.94,2.98-4.94,7.37C45.49,67.29,47.62,70.09,50.43,70.87z"/>
	<path d="M50.26,19.7h13.67v5.85H51.3c-3.79,0-5.53,1.74-5.53,5.87c0,4.05,2.35,7.32,4.87,8.31h13.28v5.85H41.57v-5.85H48
		c-3.61-1.19-6.96-4.81-6.96-10.38C41.05,23.85,43.92,19.7,50.26,19.7z"/>
</g>
</svg>
