<?xml version="1.0" encoding="utf-8"?>
<!-- Generator: Adobe Illustrator 24.1.3, SVG Export Plug-In . SVG Version: 6.00 Build 0)  -->
<svg version="1.1" id="Laag_1" xmlns="http://www.w3.org/2000/svg" xmlns:xlink="http://www.w3.org/1999/xlink" x="0px" y="0px" xml:space="preserve">
<g>
	<path d="M56.58,196.99c2.04-0.63,3.45-2.59,3.48-6.11c0.02-3.23-1.03-4.32-2.49-4.32c-2.03,0-2.46,2.09-3.09,5.95
		c-0.89,5.12-2.08,9.68-6.53,9.68c-4.35,0-6.81-4.52-6.81-10.6c0-6.63,3.18-10.2,7.66-10.25v5.18c-2.25,0.51-3.1,2.12-3.1,5.17
		c0,2.93,0.93,4.52,2.5,4.52c1.87,0,2.37-2.1,3.06-6.35c0.95-4.59,1.77-9.29,6.71-9.29c4.21,0,6.59,4.07,6.59,10.12
		c0,9.76-5.81,11.94-7.98,11.7V196.99z"/>
	<path d="M46.1,160.4v5.76h17.93v5.85H46.1v5.76h-4.43v-5.76h-6.13v-5.85h6.13v-5.76H46.1z"/>
	<path d="M41.15,142.33h5.35c0,5.41,3.74,7.81,5.32,8.58h12.21v5.85H41.67v-5.85h6.71C45.63,150.05,41.15,147.6,41.15,142.33z"/>
	<path d="M37,132.15v6.79h-5.14v-6.79H37z M41.67,132.61h22.36v5.85H41.67V132.61z"/>
	<path d="M37,120.09v6.79h-5.14v-6.79H37z M41.67,120.52h31.36v5.85H41.67V120.52z"/>
	<path d="M32.66,87.53h31.37v5.44c0,0-3.1,0.41-5.77,0.41h-1.41c4.06,1.24,7.68,4.5,7.68,10.46c0,6.78-4.68,11.96-11.65,11.96
		c-7.06,0-11.73-5.03-11.73-11.96c0-6.02,2.91-9.24,7.15-10.46H32.66V87.53z M52.88,93.38c-4.6,0-7.2,3.33-7.2,8.58
		c0,5.01,2.88,7.87,7.2,7.87c4.31,0,7.13-3.14,7.13-7.87C60.02,96.66,57.16,93.38,52.88,93.38z"/>
	<path d="M56.59,55.17c4.62,0.77,7.96,5.01,7.96,12.61c0,8.58-4.24,14.5-11.66,14.5c-7.34,0-11.74-5.69-11.74-14.35
		c0-8.75,4.1-13.25,12.6-12.88v21.33c3.7-0.43,6.36-3.41,6.36-8.46c0-3.71-1.44-6.37-3.53-7.1V55.17z M50.54,76.11V60.86
		c-3.04,0.35-4.94,2.98-4.94,7.37C45.6,72.53,47.73,75.33,50.54,76.11z"/>
	<path d="M41.15,36.4h5.35c0,5.41,3.74,7.81,5.32,8.58h12.21v5.85H41.67v-5.85h6.71C45.63,44.13,41.15,41.67,41.15,36.4z"/>
	<path d="M56.58,28.42c2.04-0.63,3.45-2.59,3.48-6.11c0.02-3.23-1.03-4.32-2.49-4.32c-2.03,0-2.46,2.09-3.09,5.95
		c-0.89,5.12-2.08,9.68-6.53,9.68c-4.35,0-6.81-4.52-6.81-10.6c0-6.63,3.18-10.2,7.66-10.25v5.18c-2.25,0.51-3.1,2.12-3.1,5.17
		c0,2.93,0.93,4.52,2.5,4.52c1.87,0,2.37-2.1,3.06-6.35C52.22,16.7,53.03,12,57.97,12c4.21,0,6.59,4.07,6.59,10.12
		c0,9.76-5.81,11.94-7.98,11.7V28.42z"/>
</g>
</svg>
