<?xml version="1.0" encoding="utf-8"?>
<!-- Generator: Adobe Illustrator 24.1.3, SVG Export Plug-In . SVG Version: 6.00 Build 0)  -->
<svg version="1.1" id="Laag_1" xmlns="http://www.w3.org/2000/svg" xmlns:xlink="http://www.w3.org/1999/xlink" x="0px" y="0px" xml:space="preserve">
<g>
	<path d="M39.13,174.39l22.36,9.84v5.5l-15.6,6.22l15.6,6.4v5.5l-22.36,9.58v-6.4l15.83-6.1l-15.83-5.64v-6.73l15.83-5.43
		l-15.83-6.31V174.39z"/>
	<path d="M39.13,144.83h22.36v5.44c0,0-3.1,0.41-5.77,0.41h-1.41c4.06,1.24,7.68,4.5,7.68,10.46c0,6.69-4.68,11.96-11.65,11.96
		c-7.06,0-11.73-5.28-11.73-12.27c0-5.78,2.9-8.94,7.14-10.15h-6.62V144.83z M50.34,150.68c-4.6,0-7.17,3.33-7.17,8.58
		c0,5.01,2.84,7.87,7.17,7.87c4.31,0,7.13-3.14,7.13-7.87C57.47,153.96,54.61,150.68,50.34,150.68z"/>
	<path d="M39.13,112.34h22.36v5.44c0,0-3.1,0.41-5.77,0.41h-1.41c4.06,1.24,7.68,4.5,7.68,10.46c0,6.69-4.68,11.96-11.65,11.96
		c-7.06,0-11.73-5.28-11.73-12.27c0-5.78,2.9-8.94,7.14-10.15h-6.62V112.34z M50.34,118.19c-4.6,0-7.17,3.33-7.17,8.58
		c0,5.01,2.84,7.87,7.17,7.87c4.31,0,7.13-3.14,7.13-7.87C57.47,121.47,54.61,118.19,50.34,118.19z"/>
	<path d="M47.82,81.29h13.67v5.85H48.86c-3.79,0-5.53,1.74-5.53,5.87c0,4.05,2.35,7.32,4.87,8.31h13.28v5.85H39.13v-5.85h6.44
		c-3.61-1.19-6.96-4.81-6.96-10.38C38.61,85.44,41.48,81.29,47.82,81.29z"/>
	<path d="M57.05,53.25h4.43v22.92h-4.43l-13.5-16.13v16.13h-4.43V53.43h4.43l13.5,16.1V53.25z"/>
	<path d="M34.45,41.31v6.79h-5.14v-6.79H34.45z M39.13,41.77h22.36v5.85H39.13V41.77z"/>
	<path d="M47.82,10.19h13.67v5.85H48.86c-3.79,0-5.53,1.74-5.53,5.87c0,4.05,2.35,7.32,4.87,8.31h13.28v5.85H39.13v-5.85h6.44
		c-3.61-1.19-6.96-4.81-6.96-10.38C38.61,14.35,41.48,10.19,47.82,10.19z"/>
</g>
</svg>
